<svg width="33" height="33" viewBox="0 0 33 33" fill="none" xmlns="http://www.w3.org/2000/svg">
<rect x="0.5" y="0.5" width="32" height="32" rx="16" fill="#343434"/>
<path fill-rule="evenodd" clip-rule="evenodd" d="M19.1467 10.1467C19.2405 10.053 19.3675 10.0004 19.5 10.0004C19.6325 10.0004 19.7596 10.053 19.8534 10.1467L22.8534 13.1467C22.947 13.2404 22.9996 13.3675 22.9996 13.5C22.9996 13.6325 22.947 13.7596 22.8534 13.8533L19.8534 16.8533C19.8076 16.9024 19.7524 16.9418 19.6911 16.9692C19.6297 16.9965 19.5635 17.0112 19.4964 17.0124C19.4293 17.0136 19.3626 17.0012 19.3003 16.9761C19.2381 16.9509 19.1815 16.9135 19.134 16.866C19.0865 16.8185 19.0491 16.762 19.024 16.6997C18.9988 16.6375 18.9865 16.5708 18.9877 16.5036C18.9888 16.4365 19.0035 16.3703 19.0309 16.309C19.0582 16.2476 19.0976 16.1924 19.1467 16.1467L21.2934 14H13.5C13.3674 14 13.2403 13.9473 13.1465 13.8535C13.0527 13.7598 13 13.6326 13 13.5C13 13.3674 13.0527 13.2402 13.1465 13.1464C13.2403 13.0527 13.3674 13 13.5 13H21.2934L19.1467 10.8533C19.0531 10.7596 19.0005 10.6325 19.0005 10.5C19.0005 10.3675 19.0531 10.2404 19.1467 10.1467ZM13.8534 16.1467C13.947 16.2404 13.9996 16.3675 13.9996 16.5C13.9996 16.6325 13.947 16.7596 13.8534 16.8533L11.7067 19H19.5C19.6327 19 19.7598 19.0527 19.8536 19.1464C19.9474 19.2402 20 19.3674 20 19.5C20 19.6326 19.9474 19.7598 19.8536 19.8535C19.7598 19.9473 19.6327 20 19.5 20H11.7067L13.8534 22.1467C13.9025 22.1924 13.9419 22.2476 13.9692 22.309C13.9966 22.3703 14.0113 22.4365 14.0124 22.5036C14.0136 22.5708 14.0013 22.6375 13.9761 22.6997C13.951 22.762 13.9136 22.8185 13.8661 22.866C13.8186 22.9135 13.762 22.9509 13.6998 22.9761C13.6375 23.0012 13.5708 23.0136 13.5037 23.0124C13.4366 23.0112 13.3704 22.9965 13.309 22.9692C13.2477 22.9418 13.1925 22.9024 13.1467 22.8533L10.1467 19.8533C10.0531 19.7596 10.0005 19.6325 10.0005 19.5C10.0005 19.3675 10.0531 19.2404 10.1467 19.1467L13.1467 16.1467C13.2405 16.053 13.3675 16.0004 13.5 16.0004C13.6325 16.0004 13.7596 16.053 13.8534 16.1467Z" fill="#959595"/>
</svg>
